<!DOCTYPE svg PUBLIC "-//W3C//DTD SVG 1.1//EN" "http://www.w3.org/Graphics/SVG/1.1/DTD/svg11.dtd">
<!-- Uploaded to: SVG Repo, www.svgrepo.com, Transformed by: SVG Repo Mixer Tools -->
<svg width="800px" height="800px" viewBox="0 0 24 24" fill="none" xmlns="http://www.w3.org/2000/svg" transform="matrix(-1, 0, 0, 1, 0, 0)">
<g id="SVGRepo_bgCarrier" stroke-width="0"/>
<g id="SVGRepo_tracerCarrier" stroke-linecap="round" stroke-linejoin="round"/>
<g id="SVGRepo_iconCarrier"> <path d="M16.2082 18.7071C15.8177 19.0976 15.1845 19.0976 14.794 18.7071C14.4034 18.3166 14.4034 17.6834 14.794 17.2929L18.0869 14H5C3.89543 14 3 13.1046 3 12V6C3 5.44771 3.44772 5 4 5C4.55228 5 5 5.44771 5 6V11C5 11.5523 5.44772 12 6 12L17.9864 12L14.794 8.8076C14.4035 8.41707 14.4035 7.78391 14.794 7.39338C15.1845 7.00286 15.8177 7.00286 16.2082 7.39338L20.4509 11.636C20.7437 11.9289 20.9268 12.2901 21 12.6683C21.122 13.2986 20.939 13.9763 20.4508 14.4645L16.2082 18.7071Z" fill="#0F0F0F"/> </g>
</svg>