<?xml version="1.0" encoding="utf-8"?><!-- Uploaded to: SVG Repo, www.svgrepo.com, Generator: SVG Repo Mixer Tools -->
<svg width="800px" height="800px" viewBox="0 0 24 24" fill="none" xmlns="http://www.w3.org/2000/svg">
<path fill-rule="evenodd" clip-rule="evenodd" d="M1 4C1 2.34315 2.34315 1 4 1H7.76393C8.90025 1 9.93904 1.64201 10.4472 2.65836L11.3416 4.44721C11.511 4.786 11.8573 5 12.2361 5H20C21.6569 5 23 6.34315 23 8V20C23 21.6569 21.6569 23 20 23H4C2.34315 23 1 21.6569 1 20V4ZM4 3C3.44772 3 3 3.44772 3 4V20C3 20.5523 3.44772 21 4 21H20C20.5523 21 21 20.5523 21 20V8C21 7.44772 20.5523 7 20 7H12.2361C11.0998 7 10.061 6.35799 9.55279 5.34164L8.65836 3.55279C8.48897 3.214 8.1427 3 7.76393 3H4Z" fill="#0F0F0F"/>
</svg>